<svg width="116" height="116" viewBox="0 0 116 116" fill="none" xmlns="http://www.w3.org/2000/svg">
<rect width="116" height="116" fill="white"/>
<mask id="path-1-outside-1_249_103" maskUnits="userSpaceOnUse" x="14" y="2" width="87" height="112" fill="black">
<rect fill="white" x="14" y="2" width="87" height="112"/>
<path fill-rule="evenodd" clip-rule="evenodd" d="M83.5712 74.1746C91.8043 66.9356 97 56.3246 97 44.5C97 22.6848 79.3152 5 57.5 5C35.6848 5 18 22.6848 18 44.5C18 56.3246 23.1958 66.9356 31.4288 74.1746C28.7307 77.1015 24.9133 81.5501 22.9375 85.2562C19.616 91.4865 18 102.182 18 102.182C18 102.182 41.8615 110.241 57.5 110.241C73.1385 110.241 97 102.182 97 102.182C97 102.182 95.384 91.4865 92.0625 85.2562C90.0867 81.5501 86.2693 77.1015 83.5712 74.1746Z"/>
</mask>
<path fill-rule="evenodd" clip-rule="evenodd" d="M83.5712 74.1746C91.8043 66.9356 97 56.3246 97 44.5C97 22.6848 79.3152 5 57.5 5C35.6848 5 18 22.6848 18 44.5C18 56.3246 23.1958 66.9356 31.4288 74.1746C28.7307 77.1015 24.9133 81.5501 22.9375 85.2562C19.616 91.4865 18 102.182 18 102.182C18 102.182 41.8615 110.241 57.5 110.241C73.1385 110.241 97 102.182 97 102.182C97 102.182 95.384 91.4865 92.0625 85.2562C90.0867 81.5501 86.2693 77.1015 83.5712 74.1746Z" fill="#167BEF"/>
<path d="M83.5712 74.1746L81.7473 72.1002L79.6236 73.9675L81.5403 76.0468L83.5712 74.1746ZM31.4288 74.1746L33.4597 76.0468L35.3765 73.9675L33.2527 72.1002L31.4288 74.1746ZM22.9375 85.2562L25.375 86.5557H25.375L22.9375 85.2562ZM18 102.182L15.2688 101.769L14.9229 104.058L17.1161 104.799L18 102.182ZM97 102.182L97.8839 104.799L100.077 104.058L99.7312 101.769L97 102.182ZM92.0625 85.2562L89.625 86.5557V86.5557L92.0625 85.2562ZM94.2378 44.5C94.2378 55.4972 89.4092 65.3633 81.7473 72.1002L85.3952 76.249C94.1993 68.5078 99.7622 57.1519 99.7622 44.5H94.2378ZM57.5 7.76224C77.7897 7.76224 94.2378 24.2103 94.2378 44.5H99.7622C99.7622 21.1592 80.8408 2.23776 57.5 2.23776V7.76224ZM20.7622 44.5C20.7622 24.2103 37.2103 7.76224 57.5 7.76224V2.23776C34.1592 2.23776 15.2378 21.1592 15.2378 44.5H20.7622ZM33.2527 72.1002C25.5908 65.3633 20.7622 55.4972 20.7622 44.5H15.2378C15.2378 57.1519 20.8007 68.5078 29.6048 76.249L33.2527 72.1002ZM25.375 86.5557C27.1669 83.1945 30.7603 78.9751 33.4597 76.0468L29.3978 72.3024C26.701 75.2279 22.6597 79.9057 20.5 83.9567L25.375 86.5557ZM18 102.182C20.7312 102.594 20.7312 102.594 20.7312 102.595C20.7312 102.595 20.7311 102.595 20.7311 102.595C20.7311 102.595 20.7311 102.595 20.7312 102.595C20.7313 102.594 20.7314 102.593 20.7317 102.591C20.7323 102.588 20.7332 102.581 20.7345 102.573C20.7372 102.556 20.7414 102.529 20.7472 102.492C20.7588 102.419 20.7766 102.308 20.8007 102.163C20.8489 101.873 20.9222 101.447 21.0206 100.915C21.2177 99.8496 21.5142 98.3645 21.9108 96.6929C22.7187 93.2881 23.8886 89.3438 25.375 86.5557L20.5 83.9567C18.6649 87.3989 17.3661 91.9173 16.5356 95.4175C16.113 97.1985 15.7979 98.7765 15.5882 99.9108C15.4832 100.479 15.4043 100.937 15.3511 101.257C15.3246 101.416 15.3044 101.541 15.2907 101.628C15.2839 101.671 15.2786 101.705 15.275 101.728C15.2731 101.74 15.2717 101.75 15.2707 101.756C15.2701 101.76 15.2697 101.762 15.2694 101.765C15.2693 101.766 15.2691 101.766 15.269 101.767C15.269 101.768 15.2689 101.768 15.2689 101.768C15.2688 101.769 15.2688 101.769 18 102.182ZM57.5 107.479C50.0454 107.479 40.4509 105.54 32.5666 103.534C28.6572 102.54 25.2281 101.545 22.7774 100.798C21.5527 100.425 20.5741 100.115 19.9041 99.8991C19.5691 99.791 19.3114 99.7064 19.1387 99.6494C19.0524 99.6208 18.9873 99.5992 18.9446 99.5849C18.9232 99.5777 18.9073 99.5724 18.8972 99.569C18.8921 99.5673 18.8885 99.5661 18.8862 99.5653C18.8851 99.5649 18.8844 99.5647 18.884 99.5646C18.8838 99.5645 18.8838 99.5645 18.8837 99.5645C18.8838 99.5645 18.8839 99.5645 18 102.182C17.1161 104.799 17.1164 104.799 17.1168 104.799C17.1171 104.799 17.1176 104.799 17.1182 104.799C17.1192 104.8 17.1207 104.8 17.1225 104.801C17.126 104.802 17.1311 104.804 17.1375 104.806C17.1504 104.81 17.1691 104.816 17.1933 104.824C17.2418 104.841 17.3126 104.864 17.4049 104.895C17.5894 104.956 17.8596 105.044 18.2076 105.157C18.9036 105.381 19.9114 105.701 21.1681 106.083C23.6801 106.848 27.1937 107.868 31.2045 108.888C39.1606 110.912 49.3162 113.003 57.5 113.003V107.479ZM97 102.182C96.1161 99.5645 96.1162 99.5645 96.1163 99.5645C96.1162 99.5645 96.1162 99.5645 96.116 99.5646C96.1156 99.5647 96.1149 99.5649 96.1138 99.5653C96.1115 99.5661 96.1079 99.5673 96.1028 99.569C96.0927 99.5724 96.0768 99.5777 96.0555 99.5849C96.0127 99.5992 95.9476 99.6208 95.8613 99.6494C95.6886 99.7064 95.4309 99.791 95.0959 99.8991C94.4259 100.115 93.4473 100.425 92.2226 100.798C89.7719 101.545 86.3428 102.54 82.4334 103.534C74.5491 105.54 64.9546 107.479 57.5 107.479V113.003C65.6838 113.003 75.8394 110.912 83.7955 108.888C87.8063 107.868 91.3199 106.848 93.8319 106.083C95.0886 105.701 96.0964 105.381 96.7924 105.157C97.1404 105.044 97.4106 104.956 97.5951 104.895C97.6874 104.864 97.7582 104.841 97.8067 104.824C97.8309 104.816 97.8496 104.81 97.8625 104.806C97.8689 104.804 97.874 104.802 97.8775 104.801C97.8793 104.8 97.8808 104.8 97.8818 104.799C97.8824 104.799 97.8829 104.799 97.8832 104.799C97.8836 104.799 97.8839 104.799 97 102.182ZM89.625 86.5557C91.1114 89.3438 92.2813 93.2881 93.0892 96.6929C93.4858 98.3645 93.7823 99.8496 93.9794 100.915C94.0778 101.447 94.1511 101.873 94.1993 102.163C94.2234 102.308 94.2412 102.419 94.2528 102.492C94.2586 102.529 94.2628 102.556 94.2655 102.573C94.2668 102.581 94.2677 102.588 94.2683 102.591C94.2686 102.593 94.2687 102.594 94.2688 102.595C94.2689 102.595 94.2689 102.595 94.2689 102.595C94.2689 102.595 94.2688 102.595 94.2688 102.595C94.2688 102.594 94.2688 102.594 97 102.182C99.7312 101.769 99.7312 101.769 99.7311 101.768C99.7311 101.768 99.731 101.768 99.731 101.767C99.7309 101.766 99.7307 101.766 99.7306 101.765C99.7303 101.762 99.7299 101.76 99.7293 101.756C99.7283 101.75 99.7269 101.74 99.725 101.728C99.7214 101.705 99.7161 101.671 99.7093 101.628C99.6956 101.541 99.6754 101.416 99.6489 101.257C99.5957 100.937 99.5168 100.479 99.4118 99.9108C99.2021 98.7765 98.887 97.1985 98.4644 95.4175C97.6339 91.9173 96.3351 87.3989 94.5 83.9567L89.625 86.5557ZM81.5403 76.0468C84.2397 78.9751 87.8331 83.1945 89.625 86.5557L94.5 83.9567C92.3403 79.9057 88.299 75.2279 85.6022 72.3024L81.5403 76.0468Z" fill="black" mask="url(#path-1-outside-1_249_103)"/>
<path fill-rule="evenodd" clip-rule="evenodd" d="M32.623 75.1836C24.9805 67.9807 20.2097 57.7642 20.2097 46.4335C20.2097 24.6183 37.8945 6.93354 59.7097 6.93354C69.1384 6.93354 77.7956 10.2371 84.5868 15.7499C77.515 9.08488 67.9846 5 57.5 5C35.6848 5 18 22.6848 18 44.5C18 56.8865 23.7014 67.9414 32.623 75.1836Z" fill="white"/>
<mask id="path-4-outside-2_249_103" maskUnits="userSpaceOnUse" x="29.3633" y="16.3637" width="59" height="86" fill="black">
<rect fill="white" x="29.3633" y="16.3637" width="59" height="86"/>
<path fill-rule="evenodd" clip-rule="evenodd" d="M64.3422 71.8357C76.3673 69.3181 85.3982 58.6543 85.3982 45.8812C85.3982 31.236 73.526 19.3637 58.8808 19.3637C44.2356 19.3637 32.3633 31.236 32.3633 45.8812C32.3633 58.6545 41.3945 69.3184 53.4199 71.8358C53.3782 72.1094 53.3566 72.3896 53.3566 72.6748V93.6678C53.3566 96.7189 55.8299 99.1923 58.881 99.1923C61.9321 99.1923 64.4055 96.7189 64.4055 93.6678V72.6748C64.4055 72.3895 64.3839 72.1093 64.3422 71.8357ZM74.0733 45.8811C74.0733 54.2716 67.2715 61.0734 58.881 61.0734C50.4905 61.0734 43.6887 54.2716 43.6887 45.8811C43.6887 37.4907 50.4905 30.6888 58.881 30.6888C67.2715 30.6888 74.0733 37.4907 74.0733 45.8811Z"/>
</mask>
<path fill-rule="evenodd" clip-rule="evenodd" d="M64.3422 71.8357C76.3673 69.3181 85.3982 58.6543 85.3982 45.8812C85.3982 31.236 73.526 19.3637 58.8808 19.3637C44.2356 19.3637 32.3633 31.236 32.3633 45.8812C32.3633 58.6545 41.3945 69.3184 53.4199 71.8358C53.3782 72.1094 53.3566 72.3896 53.3566 72.6748V93.6678C53.3566 96.7189 55.8299 99.1923 58.881 99.1923C61.9321 99.1923 64.4055 96.7189 64.4055 93.6678V72.6748C64.4055 72.3895 64.3839 72.1093 64.3422 71.8357ZM74.0733 45.8811C74.0733 54.2716 67.2715 61.0734 58.881 61.0734C50.4905 61.0734 43.6887 54.2716 43.6887 45.8811C43.6887 37.4907 50.4905 30.6888 58.881 30.6888C67.2715 30.6888 74.0733 37.4907 74.0733 45.8811Z" fill="white"/>
<path d="M64.3422 71.8357L63.7761 69.132L61.2177 69.6677L61.6115 72.2518L64.3422 71.8357ZM53.4199 71.8358L56.1506 72.2519L56.5443 69.6677L53.9858 69.1321L53.4199 71.8358ZM64.9082 74.5393C78.1869 71.7592 88.1605 59.9881 88.1605 45.8812H82.636C82.636 57.3204 74.5476 66.8769 63.7761 69.132L64.9082 74.5393ZM88.1605 45.8812C88.1605 29.7104 75.0515 16.6015 58.8808 16.6015V22.1259C72.0004 22.1259 82.636 32.7615 82.636 45.8812H88.1605ZM58.8808 16.6015C42.71 16.6015 29.601 29.7104 29.601 45.8812H35.1255C35.1255 32.7615 45.7611 22.1259 58.8808 22.1259V16.6015ZM29.601 45.8812C29.601 59.9883 39.5749 71.7596 52.8539 74.5394L53.9858 69.1321C43.2141 66.8772 35.1255 57.3206 35.1255 45.8812H29.601ZM56.1188 72.6748C56.1188 72.5293 56.1298 72.3882 56.1506 72.2519L50.6891 71.4197C50.6265 71.8305 50.5943 72.2498 50.5943 72.6748H56.1188ZM56.1188 93.6678V72.6748H50.5943V93.6678H56.1188ZM58.881 96.4301C57.3555 96.4301 56.1188 95.1934 56.1188 93.6678H50.5943C50.5943 98.2445 54.3044 101.955 58.881 101.955V96.4301ZM61.6433 93.6678C61.6433 95.1934 60.4066 96.4301 58.881 96.4301V101.955C63.4577 101.955 67.1677 98.2445 67.1677 93.6678H61.6433ZM61.6433 72.6748V93.6678H67.1677V72.6748H61.6433ZM61.6115 72.2518C61.6323 72.3882 61.6433 72.5293 61.6433 72.6748H67.1677C67.1677 72.2497 67.1355 71.8304 67.0729 71.4195L61.6115 72.2518ZM58.881 63.8357C68.7971 63.8357 76.8356 55.7972 76.8356 45.8811H71.3111C71.3111 52.7461 65.746 58.3112 58.881 58.3112V63.8357ZM40.9265 45.8811C40.9265 55.7972 48.965 63.8357 58.881 63.8357V58.3112C52.0161 58.3112 46.451 52.7461 46.451 45.8811H40.9265ZM58.881 27.9266C48.965 27.9266 40.9265 35.9651 40.9265 45.8811H46.451C46.451 39.0162 52.0161 33.4511 58.881 33.4511V27.9266ZM76.8356 45.8811C76.8356 35.9651 68.7971 27.9266 58.881 27.9266V33.4511C65.746 33.4511 71.3111 39.0162 71.3111 45.8811H76.8356Z" fill="white" mask="url(#path-4-outside-2_249_103)"/>
<mask id="path-6-outside-3_249_103" maskUnits="userSpaceOnUse" x="27.9822" y="14.9826" width="59" height="86" fill="black">
<rect fill="white" x="27.9822" y="14.9826" width="59" height="86"/>
<path fill-rule="evenodd" clip-rule="evenodd" d="M62.9611 70.4546C74.9862 67.937 84.0171 57.2732 84.0171 44.5001C84.0171 29.8549 72.1449 17.9826 57.4997 17.9826C42.8545 17.9826 30.9822 29.8549 30.9822 44.5001C30.9822 57.2733 40.0134 67.9372 52.0387 70.4547C51.9971 70.7283 51.9754 71.0085 51.9754 71.2937V92.2867C51.9754 95.3378 54.4488 97.8112 57.4999 97.8112C60.551 97.8112 63.0244 95.3378 63.0244 92.2867V71.2937C63.0244 71.0084 63.0028 70.7282 62.9611 70.4546ZM72.6922 44.5C72.6922 52.8905 65.8904 59.6923 57.4999 59.6923C49.1094 59.6923 42.3076 52.8905 42.3076 44.5C42.3076 36.1095 49.1094 29.3077 57.4999 29.3077C65.8904 29.3077 72.6922 36.1095 72.6922 44.5Z"/>
</mask>
<path fill-rule="evenodd" clip-rule="evenodd" d="M62.9611 70.4546C74.9862 67.937 84.0171 57.2732 84.0171 44.5001C84.0171 29.8549 72.1449 17.9826 57.4997 17.9826C42.8545 17.9826 30.9822 29.8549 30.9822 44.5001C30.9822 57.2733 40.0134 67.9372 52.0387 70.4547C51.9971 70.7283 51.9754 71.0085 51.9754 71.2937V92.2867C51.9754 95.3378 54.4488 97.8112 57.4999 97.8112C60.551 97.8112 63.0244 95.3378 63.0244 92.2867V71.2937C63.0244 71.0084 63.0028 70.7282 62.9611 70.4546ZM72.6922 44.5C72.6922 52.8905 65.8904 59.6923 57.4999 59.6923C49.1094 59.6923 42.3076 52.8905 42.3076 44.5C42.3076 36.1095 49.1094 29.3077 57.4999 29.3077C65.8904 29.3077 72.6922 36.1095 72.6922 44.5Z" fill="white"/>
<path d="M62.9611 70.4546L62.395 67.7509L59.8366 68.2866L60.2303 70.8707L62.9611 70.4546ZM52.0387 70.4547L54.7695 70.8708L55.1632 68.2866L52.6047 67.751L52.0387 70.4547ZM63.5271 73.1582C76.8058 70.3781 86.7794 58.607 86.7794 44.5001H81.2549C81.2549 55.9394 73.1665 65.4958 62.395 67.7509L63.5271 73.1582ZM86.7794 44.5001C86.7794 28.3293 73.6704 15.2204 57.4997 15.2204V20.7448C70.6193 20.7448 81.2549 31.3804 81.2549 44.5001H86.7794ZM57.4997 15.2204C41.3289 15.2204 28.2199 28.3293 28.2199 44.5001H33.7444C33.7444 31.3804 44.38 20.7448 57.4997 20.7448V15.2204ZM28.2199 44.5001C28.2199 58.6072 38.1938 70.3784 51.4728 73.1583L52.6047 67.751C41.833 65.496 33.7444 55.9395 33.7444 44.5001H28.2199ZM54.7377 71.2937C54.7377 71.1482 54.7487 71.0071 54.7695 70.8708L49.308 70.0386C49.2454 70.4494 49.2132 70.8687 49.2132 71.2937H54.7377ZM54.7377 92.2867V71.2937H49.2132V92.2867H54.7377ZM57.4999 95.049C55.9744 95.049 54.7377 93.8123 54.7377 92.2867H49.2132C49.2132 96.8633 52.9233 100.573 57.4999 100.573V95.049ZM60.2621 92.2867C60.2621 93.8122 59.0254 95.049 57.4999 95.049V100.573C62.0765 100.573 65.7866 96.8633 65.7866 92.2867H60.2621ZM60.2621 71.2937V92.2867H65.7866V71.2937H60.2621ZM60.2303 70.8707C60.2511 71.0071 60.2621 71.1482 60.2621 71.2937H65.7866C65.7866 70.8686 65.7544 70.4493 65.6918 70.0384L60.2303 70.8707ZM57.4999 62.4546C67.4159 62.4546 75.4545 54.416 75.4545 44.5H69.93C69.93 51.365 64.3648 56.9301 57.4999 56.9301V62.4546ZM39.5454 44.5C39.5454 54.416 47.5839 62.4546 57.4999 62.4546V56.9301C50.635 56.9301 45.0698 51.365 45.0698 44.5H39.5454ZM57.4999 26.5455C47.5839 26.5455 39.5454 34.584 39.5454 44.5H45.0698C45.0698 37.6351 50.635 32.07 57.4999 32.07V26.5455ZM75.4545 44.5C75.4545 34.584 67.4159 26.5455 57.4999 26.5455V32.07C64.3648 32.07 69.93 37.6351 69.93 44.5H75.4545Z" fill="black" mask="url(#path-6-outside-3_249_103)"/>
</svg>
