<svg width="60" height="56" viewBox="0 0 60 56" fill="none" xmlns="http://www.w3.org/2000/svg">
    <path fill-rule="evenodd" clip-rule="evenodd"
        d="M25.1097 38.1022C34.3672 38.1022 41.8719 30.5975 41.8719 21.3399C41.8719 12.0824 34.3672 4.57764 25.1097 4.57764C15.8522 4.57764 8.34747 12.0824 8.34747 21.3399C8.34747 30.5975 15.8522 38.1022 25.1097 38.1022Z"
        fill="#31B0F4" />
    <path fill-rule="evenodd" clip-rule="evenodd"
        d="M24.6384 43.2184C27.3944 43.2184 30.0314 42.7088 32.4602 41.7787C33.4821 41.3874 34.6577 41.5933 35.4054 42.3922L40.4954 47.831C41.6392 49.0532 41.2722 51.0353 39.6582 51.4792C38.1767 51.8868 36.6165 52.1044 35.0054 52.1044H17.5027C7.83622 52.1044 0 44.2682 0 34.6016V17.5028C0 7.83626 7.83622 0 17.5027 0C17.8076 0 17.8779 0.523721 17.5892 0.621917C8.96467 3.55552 2.76004 11.7231 2.76004 21.3399C2.76004 33.4231 12.5553 43.2184 24.6384 43.2184Z"
        fill="#31B0F4" />
    <path fill-rule="evenodd" clip-rule="evenodd"
        d="M35.3986 1.88554C34.7452 1.54835 35.0106 0 35.7459 0C45.4124 0 53.2486 7.83626 53.2486 17.5028V34.6016C53.2486 37.4225 52.5813 40.0874 51.396 42.4473C51.2003 42.8368 51.2612 43.3104 51.5656 43.6223L57.7281 50.1021C58.6627 51.0849 58.6433 52.6337 57.6843 53.5928L57.4448 53.8322C56.4485 54.8285 54.826 54.8051 53.8589 53.7803L41.0695 40.2288C40.0743 39.1742 40.1935 37.5043 41.1955 36.4562C44.9507 32.5281 47.2573 27.2033 47.2573 21.3399C47.2573 12.8678 42.4418 5.52041 35.3986 1.88554Z"
        fill="#31B0F4" />
    <mask id="mask0_25_746" style="mask-type:alpha" maskUnits="userSpaceOnUse" x="35" y="0"
        width="24" height="55">
        <path fill-rule="evenodd" clip-rule="evenodd"
            d="M35.3986 1.88554C34.7452 1.54835 35.0106 0 35.7459 0C45.4124 0 53.2486 7.83626 53.2486 17.5028V34.6016C53.2486 37.4225 52.5813 40.0874 51.396 42.4473C51.2003 42.8368 51.2612 43.3104 51.5656 43.6223L57.7281 50.1021C58.6627 51.0849 58.6433 52.6337 57.6843 53.5928L57.4448 53.8322C56.4485 54.8285 54.826 54.8051 53.8589 53.7803L41.0695 40.2288C40.0743 39.1742 40.1935 37.5043 41.1955 36.4562C44.9507 32.5281 47.2573 27.2033 47.2573 21.3399C47.2573 12.8678 42.4418 5.52041 35.3986 1.88554Z"
            fill="#02CB86" />
    </mask>
    <g mask="url(#mask0_25_746)">
        <path d="M67.26 48.2581L40.5592 25.8167L35.6786 39.0447L56.1433 59.5095L67.26 48.2581Z"
            fill="#0D4D97" />
    </g>
    <mask id="mask1_25_746" style="mask-type:alpha" maskUnits="userSpaceOnUse" x="8" y="4"
        width="34" height="35">
        <path fill-rule="evenodd" clip-rule="evenodd"
            d="M25.1097 38.1022C34.3672 38.1022 41.8719 30.5975 41.8719 21.3399C41.8719 12.0824 34.3672 4.57764 25.1097 4.57764C15.8522 4.57764 8.34747 12.0824 8.34747 21.3399C8.34747 30.5975 15.8522 38.1022 25.1097 38.1022Z"
            fill="#02AB89" />
    </mask>
    <g mask="url(#mask1_25_746)">
        <path
            d="M26.2075 12.2249L41.3232 26.4765C41.6484 26.7832 41.7307 27.2684 41.5246 27.6651L38.4128 33.656C38.3206 33.8336 38.1772 33.9794 38.0013 34.0746L32.7797 36.8998C32.1135 37.2603 31.3039 36.7778 31.3039 36.0203V24.4947C31.3039 23.6038 30.2267 23.1576 29.5968 23.7876L26.958 26.4263C26.3474 27.037 25.3018 26.6385 25.2526 25.7762L24.5232 13.0095C24.4716 12.1067 25.5496 11.6045 26.2075 12.2249Z"
            fill="#0D4D97" />
        <path
            d="M31.7742 23.9898V37.366C31.7742 37.8353 31.4478 38.2415 30.9895 38.3425L23.7452 39.9392C23.602 39.9708 23.4536 39.9705 23.3105 39.9383L15.0197 38.0736C14.3945 37.933 13.8003 38.4084 13.8003 39.0492V52.7874C13.8003 53.3397 13.3526 53.7874 12.8003 53.7874H-0.817507C-1.36979 53.7874 -1.8175 53.3397 -1.8175 52.7874V25.2547C-1.8175 24.9895 -1.71215 24.7352 -1.52461 24.5476L5.01502 18.008C5.40554 17.6174 6.03871 17.6174 6.42923 18.008L11.4692 23.0479C11.8497 23.4285 12.4631 23.4396 12.8572 23.0732L24.6981 12.0645C25.3378 11.4697 26.379 11.9234 26.379 12.7968V24.5566C26.379 25.4475 27.4561 25.8937 28.0861 25.2637L30.0671 23.2827C30.6971 22.6527 31.7742 23.0989 31.7742 23.9898Z"
            fill="#167BEF" />
    </g>
</svg>
    