<svg width="179" height="56" viewBox="0 0 179 56" fill="none" xmlns="http://www.w3.org/2000/svg">
    <path fill-rule="evenodd" clip-rule="evenodd"
        d="M25.1097 38.1022C34.3672 38.1022 41.8719 30.5975 41.8719 21.3399C41.8719 12.0824 34.3672 4.57764 25.1097 4.57764C15.8522 4.57764 8.34747 12.0824 8.34747 21.3399C8.34747 30.5975 15.8522 38.1022 25.1097 38.1022Z"
        fill="#31B0F4" />
    <path fill-rule="evenodd" clip-rule="evenodd"
        d="M24.6384 43.2184C27.3944 43.2184 30.0314 42.7088 32.4602 41.7787C33.4821 41.3874 34.6577 41.5933 35.4054 42.3922L40.4954 47.831C41.6392 49.0532 41.2722 51.0353 39.6582 51.4792C38.1767 51.8868 36.6165 52.1044 35.0054 52.1044H17.5027C7.83622 52.1044 0 44.2682 0 34.6016V17.5028C0 7.83626 7.83622 0 17.5027 0V0C17.8076 0 17.8779 0.523721 17.5892 0.621917C8.96467 3.55552 2.76004 11.7231 2.76004 21.3399C2.76004 33.4231 12.5553 43.2184 24.6384 43.2184Z"
        fill="#31B0F4" />
    <path fill-rule="evenodd" clip-rule="evenodd"
        d="M35.3986 1.88554C34.7452 1.54835 35.0106 0 35.7459 0V0C45.4124 0 53.2486 7.83626 53.2486 17.5028V34.6016C53.2486 37.4225 52.5813 40.0874 51.396 42.4473C51.2003 42.8368 51.2612 43.3104 51.5656 43.6223V43.6223L57.7281 50.1022C58.6627 51.0849 58.6433 52.6337 57.6843 53.5927L57.4448 53.8322C56.4485 54.8285 54.826 54.8051 53.8589 53.7803L41.0695 40.2288C40.0743 39.1742 40.1935 37.5043 41.1955 36.4562C44.9507 32.5281 47.2573 27.2033 47.2573 21.3399C47.2573 12.8678 42.4418 5.52041 35.3986 1.88554Z"
        fill="#31B0F4" />
    <mask id="mask0_25_745" style="mask-type:alpha" maskUnits="userSpaceOnUse" x="35" y="0"
        width="24" height="55">
        <path fill-rule="evenodd" clip-rule="evenodd"
            d="M35.3986 1.88554C34.7452 1.54835 35.0106 0 35.7459 0V0C45.4124 0 53.2486 7.83626 53.2486 17.5028V34.6016C53.2486 37.4225 52.5813 40.0874 51.396 42.4473C51.2003 42.8368 51.2612 43.3104 51.5656 43.6223V43.6223L57.7281 50.1022C58.6627 51.0849 58.6433 52.6337 57.6843 53.5927L57.4448 53.8322C56.4485 54.8285 54.826 54.8051 53.8589 53.7803L41.0695 40.2288C40.0743 39.1742 40.1935 37.5043 41.1955 36.4562C44.9507 32.5281 47.2573 27.2033 47.2573 21.3399C47.2573 12.8678 42.4418 5.52041 35.3986 1.88554Z"
            fill="#02CB86" />
    </mask>
    <g mask="url(#mask0_25_745)">
        <path d="M67.26 48.2581L40.5592 25.8167L35.6786 39.0447L56.1433 59.5095L67.26 48.2581Z"
            fill="#0D4D97" />
    </g>
    <mask id="mask1_25_745" style="mask-type:alpha" maskUnits="userSpaceOnUse" x="8" y="4"
        width="34" height="35">
        <path fill-rule="evenodd" clip-rule="evenodd"
            d="M25.1097 38.1022C34.3672 38.1022 41.8719 30.5975 41.8719 21.3399C41.8719 12.0824 34.3672 4.57764 25.1097 4.57764C15.8522 4.57764 8.34747 12.0824 8.34747 21.3399C8.34747 30.5975 15.8522 38.1022 25.1097 38.1022Z"
            fill="#02AB89" />
    </mask>
    <g mask="url(#mask1_25_745)">
        <path
            d="M26.2075 12.2249L41.3232 26.4765C41.6484 26.7832 41.7307 27.2684 41.5246 27.6651L38.4128 33.656C38.3206 33.8336 38.1772 33.9794 38.0013 34.0746L32.7797 36.8998C32.1135 37.2603 31.3039 36.7778 31.3039 36.0203V24.4947C31.3039 23.6038 30.2267 23.1576 29.5968 23.7876L26.958 26.4263C26.3474 27.037 25.3018 26.6385 25.2526 25.7762L24.5232 13.0095C24.4716 12.1067 25.5496 11.6045 26.2075 12.2249Z"
            fill="#0D4D97" />
        <path
            d="M31.7742 23.9898V37.366C31.7742 37.8353 31.4478 38.2415 30.9895 38.3425L23.7452 39.9392C23.602 39.9708 23.4536 39.9705 23.3105 39.9383L15.0197 38.0736C14.3945 37.933 13.8003 38.4084 13.8003 39.0492V52.7874C13.8003 53.3397 13.3526 53.7874 12.8003 53.7874H-0.817507C-1.36979 53.7874 -1.8175 53.3397 -1.8175 52.7874V25.2547C-1.8175 24.9895 -1.71215 24.7352 -1.52461 24.5476L5.01502 18.008C5.40554 17.6174 6.03871 17.6174 6.42923 18.008L11.4692 23.0479C11.8497 23.4285 12.4631 23.4396 12.8572 23.0732L24.6981 12.0645C25.3378 11.4697 26.379 11.9234 26.379 12.7968V24.5566C26.379 25.4475 27.4561 25.8937 28.0861 25.2637L30.0671 23.2827C30.6971 22.6527 31.7742 23.0989 31.7742 23.9898Z"
            fill="#167BEF" />
    </g>
    <path
        d="M72.4034 40V16.7273H74.5284V27.3977H87.733V16.7273H89.858V40H87.733V29.3068H74.5284V40H72.4034ZM95.6307 40V22.5455H97.6648V40H95.6307ZM96.6648 19.5455C96.2481 19.5455 95.892 19.4053 95.5966 19.125C95.3011 18.8371 95.1534 18.4924 95.1534 18.0909C95.1534 17.6894 95.3011 17.3485 95.5966 17.0682C95.892 16.7803 96.2481 16.6364 96.6648 16.6364C97.0814 16.6364 97.4375 16.7803 97.733 17.0682C98.0284 17.3485 98.1761 17.6894 98.1761 18.0909C98.1761 18.4924 98.0284 18.8371 97.733 19.125C97.4375 19.4053 97.0814 19.5455 96.6648 19.5455ZM102.105 40V16.7273H111.719C113.461 16.7273 114.965 17.0417 116.23 17.6705C117.503 18.2917 118.484 19.1856 119.173 20.3523C119.863 21.5114 120.207 22.8864 120.207 24.4773C120.207 26.0909 119.855 27.4621 119.151 28.5909C118.446 29.7121 117.446 30.5682 116.151 31.1591C114.855 31.7424 113.321 32.0341 111.548 32.0341H105.469V27.6023H110.503C111.351 27.6023 112.06 27.4924 112.628 27.2727C113.204 27.0455 113.639 26.7045 113.935 26.25C114.23 25.7879 114.378 25.197 114.378 24.4773C114.378 23.7576 114.23 23.1629 113.935 22.6932C113.639 22.2159 113.204 21.8598 112.628 21.625C112.052 21.3826 111.344 21.2614 110.503 21.2614H107.73V40H102.105ZM115.207 29.3636L121.003 40H114.866L109.185 29.3636H115.207ZM131.108 40.3295C129.282 40.3295 127.706 39.9697 126.381 39.25C125.063 38.5227 124.047 37.4886 123.335 36.1477C122.631 34.7992 122.278 33.197 122.278 31.3409C122.278 29.5379 122.634 27.9621 123.347 26.6136C124.059 25.2576 125.062 24.2045 126.358 23.4545C127.653 22.697 129.18 22.3182 130.938 22.3182C132.18 22.3182 133.316 22.5114 134.347 22.8977C135.377 23.2841 136.267 23.8561 137.017 24.6136C137.767 25.3712 138.35 26.3068 138.767 27.4205C139.184 28.5265 139.392 29.7955 139.392 31.2273V32.6136H124.222V29.3864H134.222C134.214 28.7955 134.074 28.2689 133.801 27.8068C133.528 27.3447 133.153 26.9848 132.676 26.7273C132.206 26.4621 131.665 26.3295 131.051 26.3295C130.43 26.3295 129.873 26.4697 129.381 26.75C128.888 27.0227 128.498 27.3977 128.21 27.875C127.922 28.3447 127.771 28.8788 127.756 29.4773V32.7614C127.756 33.4735 127.896 34.0985 128.176 34.6364C128.456 35.1667 128.854 35.5795 129.369 35.875C129.884 36.1705 130.498 36.3182 131.21 36.3182C131.703 36.3182 132.15 36.25 132.551 36.1136C132.953 35.9773 133.297 35.7765 133.585 35.5114C133.873 35.2462 134.089 34.9205 134.233 34.5341L139.335 34.6818C139.123 35.8258 138.657 36.822 137.938 37.6705C137.225 38.5114 136.29 39.1667 135.131 39.6364C133.972 40.0985 132.631 40.3295 131.108 40.3295ZM157.469 27.875L152.366 28.0114C152.313 27.6477 152.17 27.3258 151.935 27.0455C151.7 26.7576 151.393 26.5341 151.014 26.375C150.643 26.2083 150.211 26.125 149.719 26.125C149.075 26.125 148.526 26.2538 148.071 26.5114C147.624 26.7689 147.404 27.1174 147.412 27.5568C147.404 27.8977 147.541 28.1932 147.821 28.4432C148.109 28.6932 148.62 28.8939 149.355 29.0455L152.719 29.6818C154.461 30.0152 155.757 30.5682 156.605 31.3409C157.461 32.1136 157.893 33.1364 157.901 34.4091C157.893 35.6061 157.537 36.6477 156.832 37.5341C156.135 38.4205 155.181 39.1098 153.969 39.6023C152.757 40.0871 151.37 40.3295 149.81 40.3295C147.317 40.3295 145.351 39.8182 143.912 38.7955C142.48 37.7652 141.662 36.3864 141.457 34.6591L146.946 34.5227C147.067 35.1591 147.382 35.6439 147.889 35.9773C148.397 36.3106 149.045 36.4773 149.832 36.4773C150.545 36.4773 151.124 36.3447 151.571 36.0795C152.018 35.8144 152.245 35.4621 152.253 35.0227C152.245 34.6288 152.071 34.3144 151.73 34.0795C151.389 33.8371 150.855 33.6477 150.128 33.5114L147.082 32.9318C145.332 32.6136 144.029 32.0265 143.173 31.1705C142.317 30.3068 141.893 29.2083 141.901 27.875C141.893 26.7083 142.204 25.7121 142.832 24.8864C143.461 24.053 144.355 23.4167 145.514 22.9773C146.673 22.5379 148.041 22.3182 149.616 22.3182C151.98 22.3182 153.844 22.8144 155.207 23.8068C156.571 24.7917 157.325 26.1477 157.469 27.875ZM168.784 40.3295C166.951 40.3295 165.375 39.9545 164.057 39.2045C162.746 38.447 161.735 37.3939 161.023 36.0455C160.318 34.6894 159.966 33.1174 159.966 31.3295C159.966 29.5341 160.318 27.9621 161.023 26.6136C161.735 25.2576 162.746 24.2045 164.057 23.4545C165.375 22.697 166.951 22.3182 168.784 22.3182C170.617 22.3182 172.189 22.697 173.5 23.4545C174.818 24.2045 175.83 25.2576 176.534 26.6136C177.246 27.9621 177.602 29.5341 177.602 31.3295C177.602 33.1174 177.246 34.6894 176.534 36.0455C175.83 37.3939 174.818 38.447 173.5 39.2045C172.189 39.9545 170.617 40.3295 168.784 40.3295ZM168.818 36.1364C169.485 36.1364 170.049 35.9318 170.511 35.5227C170.973 35.1136 171.326 34.5455 171.568 33.8182C171.818 33.0909 171.943 32.25 171.943 31.2955C171.943 30.3258 171.818 29.4773 171.568 28.75C171.326 28.0227 170.973 27.4545 170.511 27.0455C170.049 26.6364 169.485 26.4318 168.818 26.4318C168.129 26.4318 167.545 26.6364 167.068 27.0455C166.598 27.4545 166.239 28.0227 165.989 28.75C165.746 29.4773 165.625 30.3258 165.625 31.2955C165.625 32.25 165.746 33.0909 165.989 33.8182C166.239 34.5455 166.598 35.1136 167.068 35.5227C167.545 35.9318 168.129 36.1364 168.818 36.1364Z"
        fill="white" />
</svg>
    