<svg width="172" height="61" viewBox="0 0 172 61" fill="none" xmlns="http://www.w3.org/2000/svg">
<mask id="path-1-outside-1_249_64" maskUnits="userSpaceOnUse" x="0" y="0" width="47" height="61" fill="black">
<rect fill="white" width="47" height="61"/>
<path fill-rule="evenodd" clip-rule="evenodd" d="M37.6077 39.5644C42.0785 35.6334 44.9 29.8712 44.9 23.45C44.9 11.6035 35.2965 2 23.45 2C11.6035 2 2 11.6035 2 23.45C2 29.8712 4.8215 35.6334 9.29234 39.5644C7.82717 41.1539 5.75419 43.5696 4.68125 45.5822C2.87755 48.9655 2 54.7733 2 54.7733C2 54.7733 14.9577 59.15 23.45 59.15C31.9423 59.15 44.9 54.7733 44.9 54.7733C44.9 54.7733 44.0224 48.9655 42.2188 45.5822C41.1458 43.5696 39.0728 41.1539 37.6077 39.5644Z"/>
</mask>
<path fill-rule="evenodd" clip-rule="evenodd" d="M37.6077 39.5644C42.0785 35.6334 44.9 29.8712 44.9 23.45C44.9 11.6035 35.2965 2 23.45 2C11.6035 2 2 11.6035 2 23.45C2 29.8712 4.8215 35.6334 9.29234 39.5644C7.82717 41.1539 5.75419 43.5696 4.68125 45.5822C2.87755 48.9655 2 54.7733 2 54.7733C2 54.7733 14.9577 59.15 23.45 59.15C31.9423 59.15 44.9 54.7733 44.9 54.7733C44.9 54.7733 44.0224 48.9655 42.2188 45.5822C41.1458 43.5696 39.0728 41.1539 37.6077 39.5644Z" fill="#167BEF"/>
<path d="M37.6077 39.5644L36.6172 38.438L35.4639 39.452L36.5048 40.5811L37.6077 39.5644ZM9.29234 39.5644L10.3952 40.5811L11.4361 39.452L10.2828 38.438L9.29234 39.5644ZM4.68125 45.5822L6.0049 46.2879H6.0049L4.68125 45.5822ZM2 54.7733L0.516836 54.5492L0.329026 55.7921L1.51999 56.1944L2 54.7733ZM44.9 54.7733L45.38 56.1944L46.571 55.7921L46.3832 54.5492L44.9 54.7733ZM42.2188 45.5822L40.8951 46.2879V46.2879L42.2188 45.5822ZM43.4 23.45C43.4 29.4219 40.7779 34.7796 36.6172 38.438L38.5981 40.6909C43.3791 36.4872 46.4 30.3205 46.4 23.45H43.4ZM23.45 3.5C34.4681 3.5 43.4 12.4319 43.4 23.45H46.4C46.4 10.7751 36.1249 0.5 23.45 0.5V3.5ZM3.5 23.45C3.5 12.4319 12.4319 3.5 23.45 3.5V0.5C10.7751 0.5 0.5 10.7751 0.5 23.45H3.5ZM10.2828 38.438C6.12211 34.7796 3.5 29.4219 3.5 23.45H0.5C0.5 30.3205 3.52089 36.4872 8.30187 40.6909L10.2828 38.438ZM6.0049 46.2879C6.97797 44.4626 8.92936 42.1713 10.3952 40.5811L8.18945 38.5478C6.72498 40.1364 4.53041 42.6766 3.3576 44.8765L6.0049 46.2879ZM2 54.7733C3.48316 54.9974 3.48314 54.9975 3.48313 54.9976C3.48313 54.9976 3.48311 54.9977 3.48311 54.9978C3.4831 54.9978 3.48311 54.9977 3.48313 54.9976C3.48318 54.9973 3.48327 54.9967 3.48342 54.9957C3.48372 54.9938 3.48423 54.9904 3.48495 54.9858C3.48639 54.9764 3.48869 54.9617 3.49183 54.9419C3.49812 54.9022 3.5078 54.842 3.52089 54.7633C3.54709 54.6058 3.58686 54.3747 3.6403 54.0857C3.74731 53.507 3.90834 52.7005 4.12372 51.7928C4.56242 49.9438 5.19773 47.8019 6.0049 46.2879L3.3576 44.8765C2.36108 46.7458 1.65576 49.1994 1.20476 51.1002C0.975289 52.0673 0.804201 52.9242 0.690304 53.5402C0.633284 53.8486 0.590411 54.0976 0.561566 54.271C0.547139 54.3577 0.536209 54.4256 0.528761 54.4726C0.525037 54.4961 0.522182 54.5144 0.520196 54.5273C0.519202 54.5337 0.518426 54.5387 0.517866 54.5424C0.517586 54.5442 0.51736 54.5457 0.517188 54.5469C0.517102 54.5474 0.51703 54.5479 0.516971 54.5483C0.516942 54.5485 0.516908 54.5487 0.516893 54.5488C0.516863 54.549 0.516836 54.5492 2 54.7733ZM23.45 57.65C19.4018 57.65 14.1917 56.5972 9.91021 55.5079C7.78728 54.9679 5.92513 54.4275 4.59429 54.0222C3.92924 53.8197 3.39783 53.6512 3.03398 53.5338C2.85207 53.4751 2.71212 53.4292 2.61836 53.3982C2.57149 53.3827 2.53616 53.371 2.51293 53.3632C2.50131 53.3593 2.49271 53.3564 2.4872 53.3546C2.48445 53.3537 2.48247 53.353 2.48127 53.3526C2.48067 53.3524 2.48026 53.3522 2.48005 53.3522C2.47995 53.3521 2.47994 53.3521 2.47988 53.3521C2.47992 53.3521 2.48001 53.3522 2 54.7733C1.51999 56.1944 1.52018 56.1945 1.52041 56.1945C1.52056 56.1946 1.52084 56.1947 1.52113 56.1948C1.52171 56.195 1.52249 56.1953 1.52346 56.1956C1.52541 56.1962 1.52814 56.1972 1.53164 56.1983C1.53866 56.2007 1.54878 56.2041 1.56193 56.2085C1.58825 56.2173 1.62672 56.2301 1.67682 56.2466C1.77702 56.2798 1.92375 56.3279 2.11275 56.3889C2.4907 56.5108 3.03796 56.6843 3.72038 56.8921C5.08449 57.3075 6.99253 57.8612 9.17057 58.4153C13.491 59.5145 19.0059 60.65 23.45 60.65V57.65ZM44.9 54.7733C44.42 53.3522 44.4201 53.3521 44.4201 53.3521C44.4201 53.3521 44.4201 53.3521 44.42 53.3522C44.4197 53.3522 44.4193 53.3524 44.4187 53.3526C44.4175 53.353 44.4156 53.3537 44.4128 53.3546C44.4073 53.3564 44.3987 53.3593 44.3871 53.3632C44.3638 53.371 44.3285 53.3827 44.2816 53.3982C44.1879 53.4292 44.0479 53.4751 43.866 53.5338C43.5022 53.6512 42.9708 53.8197 42.3057 54.0222C40.9749 54.4275 39.1127 54.9679 36.9898 55.5079C32.7083 56.5972 27.4982 57.65 23.45 57.65V60.65C27.8941 60.65 33.409 59.5145 37.7294 58.4153C39.9075 57.8612 41.8155 57.3075 43.1796 56.8921C43.862 56.6843 44.4093 56.5108 44.7873 56.3889C44.9762 56.3279 45.123 56.2798 45.2232 56.2466C45.2733 56.2301 45.3118 56.2173 45.3381 56.2085C45.3512 56.2041 45.3613 56.2007 45.3684 56.1983C45.3719 56.1972 45.3746 56.1962 45.3765 56.1956C45.3775 56.1953 45.3783 56.195 45.3789 56.1948C45.3792 56.1947 45.3794 56.1946 45.3796 56.1945C45.3798 56.1945 45.38 56.1944 44.9 54.7733ZM40.8951 46.2879C41.7023 47.8019 42.3376 49.9438 42.7763 51.7928C42.9917 52.7005 43.1527 53.507 43.2597 54.0857C43.3131 54.3747 43.3529 54.6058 43.3791 54.7633C43.3922 54.842 43.4019 54.9022 43.4082 54.9419C43.4113 54.9617 43.4136 54.9764 43.4151 54.9858C43.4158 54.9904 43.4163 54.9938 43.4166 54.9957C43.4167 54.9967 43.4168 54.9973 43.4169 54.9976C43.4169 54.9977 43.4169 54.9978 43.4169 54.9978C43.4169 54.9977 43.4169 54.9976 43.4169 54.9976C43.4169 54.9975 43.4168 54.9974 44.9 54.7733C46.3832 54.5492 46.3831 54.549 46.3831 54.5488C46.3831 54.5487 46.3831 54.5485 46.383 54.5483C46.383 54.5479 46.3829 54.5474 46.3828 54.5469C46.3826 54.5457 46.3824 54.5442 46.3821 54.5424C46.3816 54.5387 46.3808 54.5337 46.3798 54.5273C46.3778 54.5144 46.375 54.4961 46.3712 54.4726C46.3638 54.4256 46.3529 54.3577 46.3384 54.271C46.3096 54.0976 46.2667 53.8486 46.2097 53.5402C46.0958 52.9242 45.9247 52.0673 45.6952 51.1002C45.2442 49.1994 44.5389 46.7458 43.5424 44.8765L40.8951 46.2879ZM36.5048 40.5811C37.9706 42.1713 39.922 44.4626 40.8951 46.2879L43.5424 44.8765C42.3696 42.6766 40.175 40.1364 38.7106 38.5478L36.5048 40.5811Z" fill="black" mask="url(#path-1-outside-1_249_64)"/>
<path fill-rule="evenodd" clip-rule="evenodd" d="M9.94108 40.1126C5.79083 36.2011 3.2 30.6531 3.2 24.5C3.2 12.6535 12.8035 3.05 24.65 3.05C29.77 3.05 34.4711 4.8439 38.1589 7.83743C34.3187 4.21816 29.1434 2 23.45 2C11.6035 2 2 11.6035 2 23.45C2 30.1765 5.09616 36.1798 9.94108 40.1126Z" fill="white"/>
<mask id="path-4-outside-2_249_64" maskUnits="userSpaceOnUse" x="7.7998" y="7.80005" width="33" height="47" fill="black">
<rect fill="white" x="7.7998" y="7.80005" width="33" height="47"/>
<path fill-rule="evenodd" clip-rule="evenodd" d="M27.1656 38.2943C33.6956 36.9272 38.5998 31.1363 38.5998 24.2C38.5998 16.2471 32.1527 9.80005 24.1998 9.80005C16.2469 9.80005 9.7998 16.2471 9.7998 24.2C9.7998 31.1364 14.7041 36.9273 21.2343 38.2944C21.2117 38.4429 21.1999 38.5951 21.1999 38.75V50.15C21.1999 51.8069 22.5431 53.15 24.1999 53.15C25.8568 53.15 27.1999 51.8069 27.1999 50.15V38.75C27.1999 38.5951 27.1882 38.4429 27.1656 38.2943ZM32.4499 24.2C32.4499 28.7563 28.7563 32.45 24.1999 32.45C19.6436 32.45 15.9499 28.7563 15.9499 24.2C15.9499 19.6436 19.6436 15.95 24.1999 15.95C28.7563 15.95 32.4499 19.6436 32.4499 24.2Z"/>
</mask>
<path fill-rule="evenodd" clip-rule="evenodd" d="M27.1656 38.2943C33.6956 36.9272 38.5998 31.1363 38.5998 24.2C38.5998 16.2471 32.1527 9.80005 24.1998 9.80005C16.2469 9.80005 9.7998 16.2471 9.7998 24.2C9.7998 31.1364 14.7041 36.9273 21.2343 38.2944C21.2117 38.4429 21.1999 38.5951 21.1999 38.75V50.15C21.1999 51.8069 22.5431 53.15 24.1999 53.15C25.8568 53.15 27.1999 51.8069 27.1999 50.15V38.75C27.1999 38.5951 27.1882 38.4429 27.1656 38.2943ZM32.4499 24.2C32.4499 28.7563 28.7563 32.45 24.1999 32.45C19.6436 32.45 15.9499 28.7563 15.9499 24.2C15.9499 19.6436 19.6436 15.95 24.1999 15.95C28.7563 15.95 32.4499 19.6436 32.4499 24.2Z" fill="white"/>
<path d="M27.1656 38.2943L26.8582 36.8261L25.4688 37.117L25.6827 38.5203L27.1656 38.2943ZM21.2343 38.2944L22.7172 38.5203L22.931 37.117L21.5417 36.8262L21.2343 38.2944ZM27.4729 39.7625C34.6838 38.2528 40.0998 31.8606 40.0998 24.2H37.0998C37.0998 30.412 32.7075 35.6015 26.8582 36.8261L27.4729 39.7625ZM40.0998 24.2C40.0998 15.4187 32.9811 8.30005 24.1998 8.30005V11.3C31.3243 11.3 37.0998 17.0756 37.0998 24.2H40.0998ZM24.1998 8.30005C15.4185 8.30005 8.2998 15.4187 8.2998 24.2H11.2998C11.2998 17.0756 17.0753 11.3 24.1998 11.3V8.30005ZM8.2998 24.2C8.2998 31.8607 13.716 38.253 20.927 39.7625L21.5417 36.8262C15.6922 35.6017 11.2998 30.4121 11.2998 24.2H8.2998ZM22.6999 38.75C22.6999 38.671 22.7059 38.5944 22.7172 38.5203L19.7514 38.0684C19.7174 38.2915 19.6999 38.5192 19.6999 38.75H22.6999ZM22.6999 50.15V38.75H19.6999V50.15H22.6999ZM24.1999 51.65C23.3715 51.65 22.6999 50.9784 22.6999 50.15H19.6999C19.6999 52.6353 21.7147 54.65 24.1999 54.65V51.65ZM25.6999 50.15C25.6999 50.9784 25.0284 51.65 24.1999 51.65V54.65C26.6852 54.65 28.6999 52.6353 28.6999 50.15H25.6999ZM25.6999 38.75V50.15H28.6999V38.75H25.6999ZM25.6827 38.5203C25.694 38.5944 25.6999 38.671 25.6999 38.75H28.6999C28.6999 38.5192 28.6824 38.2915 28.6484 38.0683L25.6827 38.5203ZM24.1999 33.95C29.5847 33.95 33.9499 29.5848 33.9499 24.2H30.9499C30.9499 27.9279 27.9279 30.95 24.1999 30.95V33.95ZM14.4499 24.2C14.4499 29.5848 18.8152 33.95 24.1999 33.95V30.95C20.472 30.95 17.4499 27.9279 17.4499 24.2H14.4499ZM24.1999 14.45C18.8152 14.45 14.4499 18.8152 14.4499 24.2H17.4499C17.4499 20.4721 20.472 17.45 24.1999 17.45V14.45ZM33.9499 24.2C33.9499 18.8152 29.5847 14.45 24.1999 14.45V17.45C27.9279 17.45 30.9499 20.4721 30.9499 24.2H33.9499Z" fill="white" mask="url(#path-4-outside-2_249_64)"/>
<mask id="path-6-outside-3_249_64" maskUnits="userSpaceOnUse" x="7.0498" y="7.05005" width="33" height="47" fill="black">
<rect fill="white" x="7.0498" y="7.05005" width="33" height="47"/>
<path fill-rule="evenodd" clip-rule="evenodd" d="M26.4155 37.5443C32.9456 36.1772 37.8498 30.3863 37.8498 23.45C37.8498 15.4971 31.4027 9.05005 23.4498 9.05005C15.4969 9.05005 9.0498 15.4971 9.0498 23.45C9.0498 30.3864 13.9541 36.1773 20.4843 37.5444C20.4617 37.6929 20.4499 37.8451 20.4499 38V49.4C20.4499 51.0568 21.7931 52.4 23.4499 52.4C25.1068 52.4 26.4499 51.0568 26.4499 49.4V38C26.4499 37.8451 26.4382 37.6929 26.4155 37.5443ZM31.6999 23.45C31.6999 28.0063 28.0063 31.7 23.4499 31.7C18.8936 31.7 15.1999 28.0063 15.1999 23.45C15.1999 18.8936 18.8936 15.2 23.4499 15.2C28.0063 15.2 31.6999 18.8936 31.6999 23.45Z"/>
</mask>
<path fill-rule="evenodd" clip-rule="evenodd" d="M26.4155 37.5443C32.9456 36.1772 37.8498 30.3863 37.8498 23.45C37.8498 15.4971 31.4027 9.05005 23.4498 9.05005C15.4969 9.05005 9.0498 15.4971 9.0498 23.45C9.0498 30.3864 13.9541 36.1773 20.4843 37.5444C20.4617 37.6929 20.4499 37.8451 20.4499 38V49.4C20.4499 51.0568 21.7931 52.4 23.4499 52.4C25.1068 52.4 26.4499 51.0568 26.4499 49.4V38C26.4499 37.8451 26.4382 37.6929 26.4155 37.5443ZM31.6999 23.45C31.6999 28.0063 28.0063 31.7 23.4499 31.7C18.8936 31.7 15.1999 28.0063 15.1999 23.45C15.1999 18.8936 18.8936 15.2 23.4499 15.2C28.0063 15.2 31.6999 18.8936 31.6999 23.45Z" fill="white"/>
<path d="M26.4155 37.5443L26.1082 36.0762L24.7188 36.367L24.9327 37.7703L26.4155 37.5443ZM20.4843 37.5444L21.9672 37.7703L22.181 36.367L20.7917 36.0762L20.4843 37.5444ZM26.7229 39.0125C33.9338 37.5028 39.3498 31.1106 39.3498 23.45H36.3498C36.3498 29.662 31.9575 34.8515 26.1082 36.0762L26.7229 39.0125ZM39.3498 23.45C39.3498 14.6687 32.2311 7.55005 23.4498 7.55005V10.55C30.5743 10.55 36.3498 16.3256 36.3498 23.45H39.3498ZM23.4498 7.55005C14.6685 7.55005 7.5498 14.6687 7.5498 23.45H10.5498C10.5498 16.3256 16.3253 10.55 23.4498 10.55V7.55005ZM7.5498 23.45C7.5498 31.1107 12.966 37.503 20.1769 39.0125L20.7917 36.0762C14.9422 34.8516 10.5498 29.6621 10.5498 23.45H7.5498ZM21.9499 38C21.9499 37.921 21.9559 37.8444 21.9672 37.7703L19.0014 37.3184C18.9674 37.5415 18.9499 37.7692 18.9499 38H21.9499ZM21.9499 49.4V38H18.9499V49.4H21.9499ZM23.4499 50.9C22.6215 50.9 21.9499 50.2284 21.9499 49.4H18.9499C18.9499 51.8853 20.9646 53.9 23.4499 53.9V50.9ZM24.9499 49.4C24.9499 50.2284 24.2784 50.9 23.4499 50.9V53.9C25.9352 53.9 27.9499 51.8853 27.9499 49.4H24.9499ZM24.9499 38V49.4H27.9499V38H24.9499ZM24.9327 37.7703C24.9439 37.8443 24.9499 37.921 24.9499 38H27.9499C27.9499 37.7692 27.9324 37.5415 27.8984 37.3184L24.9327 37.7703ZM23.4499 33.2C28.8347 33.2 33.1999 28.8348 33.1999 23.45H30.1999C30.1999 27.1779 27.1778 30.2 23.4499 30.2V33.2ZM13.6999 23.45C13.6999 28.8348 18.0652 33.2 23.4499 33.2V30.2C19.722 30.2 16.6999 27.1779 16.6999 23.45H13.6999ZM23.4499 13.7C18.0652 13.7 13.6999 18.0652 13.6999 23.45H16.6999C16.6999 19.7221 19.722 16.7 23.4499 16.7V13.7ZM33.1999 23.45C33.1999 18.0652 28.8347 13.7 23.4499 13.7V16.7C27.1778 16.7 30.1999 19.7221 30.1999 23.45H33.1999Z" fill="black" mask="url(#path-6-outside-3_249_64)"/>
<path d="M67.0508 26.378C67.1188 23.964 68.4108 22.06 70.8588 22.06C73.7148 22.06 74.6668 23.896 74.6668 26.174V36H77.8628V25.63C77.8628 21.992 75.9248 19.17 72.0148 19.17C70.1448 19.17 68.2408 19.816 67.0508 21.55V11.384H63.8548V36H67.0508V26.378ZM86.1086 36V19.646H82.9466V36H86.1086ZM82.2326 13.458C82.2326 14.716 83.2526 15.736 84.5106 15.736C85.8026 15.736 86.8226 14.716 86.8226 13.458C86.8226 12.166 85.8026 11.146 84.5106 11.146C83.2526 11.146 82.2326 12.166 82.2326 13.458ZM103.48 36H108.716L103.548 26.14C106.71 25.222 108.682 22.672 108.682 19.306C108.682 15.124 105.69 11.894 100.998 11.894H91.5802V36H96.3062V26.718H98.7542L103.48 36ZM96.3062 22.672V15.974H100.114C102.494 15.974 103.888 17.3 103.888 19.34C103.888 21.312 102.494 22.672 100.114 22.672H96.3062ZM115.323 25.732C115.425 24.202 116.717 22.434 119.063 22.434C121.647 22.434 122.735 24.066 122.803 25.732H115.323ZM123.245 30.084C122.701 31.58 121.545 32.634 119.437 32.634C117.193 32.634 115.323 31.036 115.221 28.826H127.189C127.189 28.758 127.257 28.078 127.257 27.432C127.257 22.06 124.163 18.762 118.995 18.762C114.711 18.762 110.767 22.23 110.767 27.568C110.767 33.212 114.813 36.51 119.403 36.51C123.517 36.51 126.169 34.096 127.019 31.206L123.245 30.084ZM129.39 31.342C129.594 33.246 131.328 36.51 136.36 36.51C140.746 36.51 142.854 33.722 142.854 31.002C142.854 28.554 141.188 26.548 137.89 25.868L135.51 25.358C134.592 25.188 133.98 24.678 133.98 23.862C133.98 22.91 134.932 22.196 136.122 22.196C138.026 22.196 138.74 23.454 138.876 24.44L142.65 23.59C142.446 21.788 140.848 18.762 136.088 18.762C132.484 18.762 129.832 21.244 129.832 24.236C129.832 26.582 131.294 28.52 134.524 29.234L136.734 29.744C138.026 30.016 138.536 30.628 138.536 31.376C138.536 32.26 137.822 33.042 136.326 33.042C134.354 33.042 133.368 31.818 133.266 30.492L129.39 31.342ZM153.938 32.396C151.728 32.396 149.688 30.764 149.688 27.636C149.688 24.474 151.728 22.876 153.938 22.876C156.148 22.876 158.188 24.474 158.188 27.636C158.188 30.798 156.148 32.396 153.938 32.396ZM153.938 18.762C148.94 18.762 145.166 22.468 145.166 27.636C145.166 32.77 148.94 36.51 153.938 36.51C158.936 36.51 162.71 32.77 162.71 27.636C162.71 22.468 158.936 18.762 153.938 18.762Z" fill="black"/>
<path d="M69.8912 56V47.492H68.7152V51.128H64.3712V47.492H63.1952V56H64.3712V52.22H68.7152V56H69.8912ZM73.0506 56V50.228H71.9346V56H73.0506ZM71.6826 48.044C71.6826 48.488 72.0426 48.848 72.4866 48.848C72.9426 48.848 73.3026 48.488 73.3026 48.044C73.3026 47.588 72.9426 47.228 72.4866 47.228C72.0426 47.228 71.6826 47.588 71.6826 48.044ZM77.8018 53.048V52.064H74.5498V53.048H77.8018ZM83.8297 56H85.1977L83.1697 52.436C84.4537 52.196 85.2337 51.248 85.2337 50.024C85.2337 48.62 84.2377 47.492 82.6297 47.492H79.4257V56H80.6137V52.52H81.8857L83.8297 56ZM80.6137 51.464V48.548H82.4137C83.3737 48.548 84.0217 49.124 84.0217 50.024C84.0217 50.9 83.3737 51.464 82.4137 51.464H80.6137ZM87.233 52.52C87.281 51.776 87.857 51.044 88.805 51.044C89.825 51.044 90.365 51.692 90.389 52.52H87.233ZM90.557 54.02C90.341 54.668 89.873 55.184 88.937 55.184C87.965 55.184 87.221 54.464 87.197 53.432H91.541C91.553 53.36 91.565 53.216 91.565 53.072C91.565 51.272 90.569 50.048 88.793 50.048C87.341 50.048 86.033 51.284 86.033 53.096C86.033 55.052 87.389 56.18 88.937 56.18C90.281 56.18 91.205 55.376 91.529 54.356L90.557 54.02ZM92.4649 54.5C92.5609 55.16 93.2329 56.18 94.8169 56.18C96.2449 56.18 96.9289 55.208 96.9289 54.392C96.9289 53.54 96.3769 52.904 95.3329 52.676L94.3969 52.472C93.9529 52.376 93.7369 52.124 93.7369 51.776C93.7369 51.38 94.1209 51.008 94.6969 51.008C95.6089 51.008 95.8489 51.668 95.8969 51.968L96.8929 51.596C96.7729 51.08 96.2809 50.048 94.6969 50.048C93.5689 50.048 92.6449 50.888 92.6449 51.872C92.6449 52.688 93.1849 53.3 94.0849 53.492L95.0689 53.708C95.5489 53.816 95.8129 54.092 95.8129 54.452C95.8129 54.86 95.4649 55.22 94.8289 55.22C94.0129 55.22 93.5569 54.74 93.4849 54.14L92.4649 54.5ZM102.727 51.464V48.548H104.431C105.451 48.548 106.075 49.124 106.075 50.024C106.075 50.9 105.451 51.464 104.431 51.464H102.727ZM104.647 52.52C106.219 52.52 107.275 51.452 107.275 50.012C107.275 48.584 106.219 47.492 104.647 47.492H101.551V56H102.727V52.52H104.647ZM109.602 52.604C109.626 51.752 110.082 51.08 110.946 51.08C111.954 51.08 112.29 51.728 112.29 52.532V56H113.418V52.34C113.418 51.056 112.734 50.06 111.354 50.06C110.694 50.06 110.022 50.288 109.602 50.9V47.312H108.474V56H109.602V52.604ZM117.684 55.172C116.724 55.172 115.884 54.452 115.884 53.108C115.884 51.776 116.724 51.056 117.684 51.056C118.644 51.056 119.484 51.776 119.484 53.108C119.484 54.452 118.644 55.172 117.684 55.172ZM117.684 50.048C115.956 50.048 114.732 51.356 114.732 53.108C114.732 54.872 115.956 56.18 117.684 56.18C119.412 56.18 120.636 54.872 120.636 53.108C120.636 51.356 119.412 50.048 117.684 50.048ZM123.533 48.404H122.501V49.34C122.501 49.844 122.237 50.228 121.613 50.228H121.301V51.248H122.405V54.416C122.405 55.46 123.029 56.06 124.013 56.06C124.397 56.06 124.685 55.988 124.781 55.952V54.992C124.685 55.016 124.481 55.04 124.337 55.04C123.749 55.04 123.533 54.776 123.533 54.248V51.248H124.781V50.228H123.533V48.404ZM128.7 55.172C127.74 55.172 126.9 54.452 126.9 53.108C126.9 51.776 127.74 51.056 128.7 51.056C129.66 51.056 130.5 51.776 130.5 53.108C130.5 54.452 129.66 55.172 128.7 55.172ZM128.7 50.048C126.972 50.048 125.748 51.356 125.748 53.108C125.748 54.872 126.972 56.18 128.7 56.18C130.428 56.18 131.652 54.872 131.652 53.108C131.652 51.356 130.428 50.048 128.7 50.048ZM141.387 56V54.908H137.391V52.304H141.015V51.2H137.391V48.584H141.387V47.492H136.215V56H141.387ZM144.02 52.664C144.02 51.788 144.476 51.08 145.364 51.08C146.372 51.08 146.708 51.728 146.708 52.532V56H147.836V52.34C147.836 51.056 147.152 50.06 145.772 50.06C145.1 50.06 144.416 50.336 143.996 51.056V50.228H142.892V56H144.02V52.664ZM149.21 56.312C149.354 57.548 150.434 58.46 151.874 58.46C154.046 58.46 154.766 57.032 154.766 55.568V50.228H153.65V51.032C153.362 50.456 152.762 50.12 151.874 50.12C150.29 50.12 149.222 51.368 149.222 52.928C149.222 54.56 150.338 55.724 151.874 55.724C152.738 55.724 153.362 55.304 153.638 54.776V55.604C153.638 56.852 153.086 57.476 151.874 57.476C150.998 57.476 150.386 56.864 150.302 56.06L149.21 56.312ZM152.042 54.776C151.022 54.776 150.374 54.056 150.374 52.928C150.374 51.812 151.046 51.08 152.042 51.08C153.014 51.08 153.686 51.812 153.686 52.928C153.686 54.044 153.014 54.776 152.042 54.776ZM157.683 56V50.228H156.567V56H157.683ZM156.315 48.044C156.315 48.488 156.675 48.848 157.119 48.848C157.575 48.848 157.935 48.488 157.935 48.044C157.935 47.588 157.575 47.228 157.119 47.228C156.675 47.228 156.315 47.588 156.315 48.044ZM160.731 52.664C160.731 51.788 161.187 51.08 162.075 51.08C163.083 51.08 163.419 51.728 163.419 52.532V56H164.547V52.34C164.547 51.056 163.863 50.06 162.483 50.06C161.811 50.06 161.127 50.336 160.707 51.056V50.228H159.603V56H160.731V52.664ZM167.073 52.52C167.121 51.776 167.697 51.044 168.645 51.044C169.665 51.044 170.205 51.692 170.229 52.52H167.073ZM170.397 54.02C170.181 54.668 169.713 55.184 168.777 55.184C167.805 55.184 167.061 54.464 167.037 53.432H171.381C171.393 53.36 171.405 53.216 171.405 53.072C171.405 51.272 170.409 50.048 168.633 50.048C167.181 50.048 165.873 51.284 165.873 53.096C165.873 55.052 167.229 56.18 168.777 56.18C170.121 56.18 171.045 55.376 171.369 54.356L170.397 54.02Z" fill="#167BEF"/>
</svg>
